<?xml version="1.0" encoding="UTF-8"?>
<svg id="_レイヤー_1" data-name="レイヤー 1" xmlns="http://www.w3.org/2000/svg" viewBox="0 0 264.6 48.75">
  <path d="M11.45,48.75H0V0h11.45v48.75ZM31.25,0h11.45v48.75h-11.45V0Z"/>
  <path d="M46.44,31.25c0-10.66,7.85-18.36,18.72-18.36s18.72,7.7,18.72,18.36-7.85,18.36-18.72,18.36-18.72-7.71-18.72-18.36ZM65.16,38.88c4.61,0,7.49-3.53,7.49-7.63s-2.88-7.63-7.49-7.63-7.49,3.53-7.49,7.63,2.88,7.63,7.49,7.63Z"/>
  <path d="M87.91,0h11.09v48.75h-11.09V0Z"/>
  <path d="M103.03,31.25c0-10.66,7.85-18.36,18.72-18.36s18.72,7.7,18.72,18.36-7.85,18.36-18.72,18.36-18.72-7.71-18.72-18.36ZM121.75,38.88c4.61,0,7.49-3.53,7.49-7.63s-2.88-7.63-7.49-7.63-7.49,3.53-7.49,7.63,2.88,7.63,7.49,7.63Z"/>
  <path d="M143.06,31.32c0-10.08,7.34-17.57,18.87-17.57h4.97v10.58h-5.04c-4.61,0-7.56,2.74-7.56,6.91s2.95,6.91,7.56,6.91h6.05l-2.88,10.58h-3.1c-11.52,0-18.87-7.34-18.87-17.43Z"/>
  <path d="M185.4,13.75h4.9v10.58h-3.67c-2.88,0-4.25,1.66-4.25,4.32v20.09h-11.09v-21.03c0-8.28,4.61-13.97,14.11-13.97Z"/>
  <path d="M191.52,31.25c0-10.66,7.85-18.36,18.72-18.36s18.72,7.7,18.72,18.36-7.85,18.36-18.72,18.36-18.72-7.71-18.72-18.36ZM210.24,38.88c4.61,0,7.49-3.53,7.49-7.63s-2.88-7.63-7.49-7.63-7.49,3.53-7.49,7.63,2.88,7.63,7.49,7.63Z"/>
  <path d="M248.62,12.89c9.58,0,15.99,6.12,15.99,16.13v19.73h-11.09v-19.73c0-3.6-1.87-5.4-4.9-5.4s-4.97,1.8-4.97,5.4v19.73h-11.09v-19.73c0-10.01,6.41-16.13,16.06-16.13Z"/>
  <rect x="15.62" y="14.94" width="11.45" height="18.86"/>
</svg>